<svg width="55" height="65" viewBox="0 0 55 65" fill="none" xmlns="http://www.w3.org/2000/svg">
<path d="M0.51709 43.3166C0.51709 42.2974 1.3433 41.4712 2.36249 41.4712H9.74409C10.7633 41.4712 11.5895 42.2974 11.5895 43.3166V61.7706H0.51709V43.3166Z" fill="#353535"/>
<path d="M14.665 39.0104C14.665 37.9913 15.4913 37.165 16.5104 37.165H23.892C24.9112 37.165 25.7374 37.9913 25.7374 39.0104V61.7704H14.665V39.0104Z" fill="#353535"/>
<path d="M28.813 31.6291C28.813 30.6099 29.6392 29.7837 30.6584 29.7837H38.04C39.0592 29.7837 39.8854 30.6099 39.8854 31.6291V61.7706H28.813V31.6291Z" fill="#353535"/>
<path d="M42.9614 20.5563C42.9614 19.5372 43.7876 18.7109 44.8068 18.7109H52.1884C53.2076 18.7109 54.0338 19.5372 54.0338 20.5563V61.7703H42.9614V20.5563Z" fill="#353535"/>
<line x1="0.51709" y1="64.5386" x2="54.0337" y2="64.5386" stroke="#353535" stroke-width="0.615133"/>
<path d="M0.78154 35.9739C0.277959 36.052 -0.0670074 36.5235 0.0110366 37.0271C0.0890806 37.5306 0.560581 37.8756 1.06416 37.7976L0.922852 36.8857L0.78154 35.9739ZM52.1835 5.08508C52.132 4.5781 51.6792 4.20891 51.1722 4.26047L42.9105 5.10073C42.4035 5.15229 42.0344 5.60508 42.0859 6.11205C42.1375 6.61903 42.5903 6.98822 43.0973 6.93666L50.441 6.18977L51.1879 13.5335C51.2394 14.0405 51.6922 14.4096 52.1992 14.3581C52.7062 14.3065 53.0754 13.8537 53.0238 13.3468L52.1835 5.08508ZM0.922852 36.8857C1.06416 37.7976 1.06439 37.7975 1.06467 37.7975C1.06483 37.7975 1.06517 37.7974 1.06549 37.7974C1.06614 37.7972 1.06701 37.7971 1.06808 37.7969C1.07022 37.7966 1.07319 37.7961 1.07699 37.7955C1.08459 37.7943 1.09549 37.7926 1.10965 37.7903C1.13795 37.7858 1.17924 37.779 1.23306 37.77C1.34069 37.7519 1.49843 37.7247 1.70257 37.6875C2.11083 37.6132 2.70483 37.4992 3.45482 37.3392C4.95449 37.0193 7.07967 36.5153 9.59205 35.777C14.6112 34.302 21.2031 31.8839 27.445 28.1127L26.9678 27.3229L26.4906 26.5332C20.43 30.195 13.9995 32.5583 9.07173 34.0065C6.61069 34.7297 4.53134 35.2227 3.06985 35.5344C2.33926 35.6903 1.76352 35.8007 1.37218 35.8719C1.17652 35.9075 1.02701 35.9333 0.927323 35.9501C0.877483 35.9584 0.840106 35.9645 0.815653 35.9685C0.803427 35.9705 0.794433 35.9719 0.788728 35.9728C0.785876 35.9732 0.783846 35.9736 0.782645 35.9738C0.782045 35.9738 0.781652 35.9739 0.781468 35.9739C0.781376 35.974 0.781394 35.9739 0.781348 35.974C0.781418 35.9739 0.78154 35.9739 0.922852 36.8857ZM26.9678 27.3229L27.445 28.1127C33.6946 24.3367 39.8326 18.7363 44.3876 14.1107C46.6703 11.7926 48.5659 9.70842 49.8916 8.20304C50.5545 7.45018 51.0753 6.84165 51.431 6.42047C51.6089 6.20987 51.7456 6.04607 51.8381 5.93446C51.8844 5.87866 51.9196 5.8359 51.9435 5.80685C51.9555 5.79233 51.9646 5.78123 51.9708 5.77365C51.9739 5.76986 51.9763 5.76694 51.9779 5.76492C51.9787 5.76391 51.9794 5.76312 51.9798 5.76255C51.9801 5.76227 51.9803 5.76201 51.9804 5.76187C51.9806 5.76167 51.9807 5.76152 51.2656 5.17844C50.5505 4.59536 50.5505 4.59532 50.5505 4.59534C50.5504 4.59543 50.5503 4.59551 50.5502 4.59567C50.5499 4.596 50.5495 4.59655 50.5488 4.59732C50.5476 4.59887 50.5456 4.6013 50.5429 4.60461C50.5375 4.61123 50.5292 4.62134 50.518 4.63488C50.4958 4.66196 50.4622 4.70271 50.4176 4.75647C50.3284 4.86399 50.1954 5.02353 50.0212 5.22971C49.6729 5.6421 49.1604 6.24097 48.5066 6.98346C47.1987 8.46876 45.3266 10.527 43.0727 12.8159C38.5544 17.4043 32.5435 22.8761 26.4906 26.5332L26.9678 27.3229Z" fill="#353535"/>
</svg>
